<svg width="203" height="40" viewBox="0 0 203 40" fill="none" xmlns="http://www.w3.org/2000/svg">
<path d="M104.047 19.4275C102.378 19.4275 101.175 19.9747 99.9551 20.5323V33.1472C101.123 33.2585 101.793 33.2585 102.902 33.2585C106.907 33.2585 107.456 31.4242 107.456 28.863V22.838C107.456 20.9466 106.829 19.4275 104.047 19.4275ZM77.4454 18.7391C74.6663 18.7391 74.0321 20.2647 74.0321 22.1543V23.2159H80.855V22.1543C80.855 20.2647 80.2208 18.7391 77.4454 18.7391ZM25.9137 31.8694C25.9137 33.3642 26.619 34.1406 28.1755 34.1406C29.8452 34.1406 30.8339 33.5962 32.0528 33.0368V30.0444H28.4019C26.6732 30.0444 25.9137 30.3662 25.9137 31.8694ZM129.923 19.4275C127.139 19.4275 126.175 20.9466 126.175 22.838V29.7404C126.175 31.6365 127.139 33.1603 129.923 33.1603C132.699 33.1603 133.671 31.6365 133.671 29.7404V22.838C133.67 20.9466 132.698 19.4275 129.923 19.4275ZM12.2716 39.609H4.08868V19.8026H0V12.9779H4.08961V8.87891C4.08961 3.31042 6.39727 0 12.9564 0H18.4173V6.82662H15.004C12.4503 6.82662 12.2819 7.78074 12.2819 9.56083L12.2716 12.9769H18.4547L17.7316 19.8017H12.2716V39.609ZM40.2376 39.6604H33.4175L33.1229 37.9356C30.0089 39.6605 27.2298 39.9401 25.3964 39.9401C20.3947 39.9401 17.7326 36.5989 17.7326 31.9779C17.7326 26.5264 20.8391 24.5807 26.3963 24.5807H32.0528V23.4021C32.0528 20.6192 31.7338 19.8026 27.4543 19.8026H20.4574L21.1412 12.9779H28.7891C38.1788 12.9779 40.2376 15.9441 40.2376 23.4573V39.6604ZM63.4292 20.3031C59.1853 19.5753 57.9664 19.4154 55.9244 19.4154C52.2567 19.4154 51.1482 20.2245 51.1482 23.3394V29.2316C51.1482 32.3465 52.2567 33.1594 55.9244 33.1594C57.9664 33.1594 59.1853 32.9966 63.4292 32.266V38.9234C59.7119 39.7568 57.2901 39.9757 55.2434 39.9757C46.4581 39.9757 42.9662 35.3557 42.9662 28.6815V23.9007C42.9662 17.2209 46.4581 12.5925 55.2434 12.5925C57.2901 12.5925 59.7119 12.8123 63.4292 13.6495V20.3031ZM89.037 28.6815H74.0312V29.2316C74.0312 32.3465 75.1406 33.1594 78.8074 33.1594C82.1038 33.1594 84.1158 32.9966 88.3523 32.266V38.9234C84.2664 39.7568 82.1374 39.9757 78.1292 39.9757C69.3429 39.9757 65.8491 35.3557 65.8491 28.6815V23.215C65.8491 17.3752 68.4411 12.5925 77.4445 12.5925C86.4478 12.5925 89.037 17.3201 89.037 23.215V28.6815ZM115.637 28.8078C115.637 35.2584 113.794 39.9635 102.625 39.9635C98.5913 39.9635 96.2256 39.609 91.774 38.9243V2.05042L99.9542 0.685657V13.584C101.722 12.9274 104.01 12.5934 106.092 12.5934C114.273 12.5934 115.636 16.2612 115.636 22.1552V28.8078H115.637ZM141.86 28.9481C141.86 34.5129 139.562 39.9102 129.95 39.9102C120.333 39.9102 117.993 34.5129 117.993 28.9481V23.5751C117.993 18.0076 120.333 12.6093 129.95 12.6093C139.562 12.6093 141.86 18.0076 141.86 23.5751V28.9481ZM168.064 28.9481C168.064 34.5129 165.764 39.9102 156.154 39.9102C146.537 39.9102 144.196 34.5129 144.196 28.9481V23.5751C144.196 18.0076 146.537 12.6093 156.154 12.6093C165.764 12.6093 168.064 18.0076 168.064 23.5751V28.9481ZM194.956 39.609H186.09L178.59 27.0904V39.609H170.407V2.04948L178.59 0.68472V24.8641L186.09 12.9779H194.956L186.77 25.9492L194.956 39.609ZM156.126 19.4275C153.346 19.4275 152.382 20.9466 152.382 22.838V29.7404C152.382 31.6365 153.346 33.1603 156.126 33.1603C158.901 33.1603 159.883 31.6365 159.883 29.7404V22.838C159.883 20.9466 158.901 19.4275 156.126 19.4275ZM199.627 34.9376C201.005 34.9376 202.102 36.061 202.102 37.4641C202.102 38.8887 201.004 40 199.617 40C198.236 40 197.116 38.8887 197.116 37.4641C197.116 36.061 198.236 34.9376 199.617 34.9376H199.627ZM199.617 35.3304C198.506 35.3304 197.598 36.2855 197.598 37.4641C197.598 38.6642 198.507 39.6071 199.627 39.6071C200.747 39.6184 201.643 38.6642 201.643 37.4753C201.643 36.2864 200.747 35.3304 199.627 35.3304H199.617ZM199.146 38.9346H198.697V36.1152C198.933 36.0825 199.157 36.0498 199.494 36.0498C199.921 36.0498 200.199 36.1396 200.37 36.2621C200.536 36.3865 200.625 36.5764 200.625 36.8449C200.625 37.2172 200.38 37.4407 200.078 37.5315V37.553C200.324 37.5988 200.491 37.8214 200.548 38.2358C200.614 38.6745 200.682 38.842 200.726 38.9336H200.255C200.189 38.842 200.121 38.5847 200.065 38.2134C199.999 37.8551 199.818 37.7204 199.458 37.7204H199.147V38.9346H199.146ZM199.146 37.3743H199.472C199.84 37.3743 200.153 37.2387 200.153 36.8898C200.153 36.6428 199.976 36.3968 199.472 36.3968C199.325 36.3968 199.223 36.408 199.146 36.4183V37.3743Z" fill="#CACAD2"/>
</svg>
