<svg width="55" height="55" viewBox="0 0 55 55" fill="none" xmlns="http://www.w3.org/2000/svg">
<g clip-path="url(#clip0)">
<path d="M47.3481 44.4043C25.0843 55 11.2671 46.1349 2.42225 40.7504C1.87494 40.4111 0.944693 40.8298 1.75181 41.7568C4.69846 45.3297 14.3553 53.9413 26.9602 53.9413C39.5738 53.9413 47.0777 47.0588 48.0164 45.8582C48.9488 44.6677 48.2902 44.011 47.3479 44.4043H47.3481ZM53.6009 40.9512C53.003 40.1727 49.9654 40.0275 48.0537 40.2624C46.139 40.4904 43.2652 41.6606 43.515 42.3632C43.6432 42.6264 43.9049 42.5083 45.2202 42.39C46.5391 42.2585 50.2338 41.7922 51.0037 42.7986C51.7772 43.812 49.8253 48.6394 49.4688 49.4179C49.1244 50.1965 49.6004 50.3972 50.2474 49.8787C50.8855 49.3604 52.0406 48.018 52.8158 46.1184C53.5856 44.2084 54.0551 41.544 53.6007 40.9512H53.6009Z" fill="#FF9900"/>
<path fill-rule="evenodd" clip-rule="evenodd" d="M32.3783 22.7837C32.3783 25.5639 32.4486 27.8824 31.0434 30.3513C29.9092 32.3589 28.1126 33.5933 26.1052 33.5933C23.3651 33.5933 21.7692 31.5056 21.7692 28.4244C21.7692 22.342 27.2191 21.238 32.3783 21.238V22.7837ZM39.5747 40.1776C39.1029 40.5991 38.4204 40.6293 37.8885 40.3482C35.5199 38.381 35.0982 37.4677 33.7935 35.5907C29.8791 39.5855 27.1089 40.7797 22.0303 40.7797C16.0282 40.7797 11.351 37.0761 11.351 29.6589C11.351 23.8678 14.4927 19.9232 18.9588 17.9962C22.8332 16.2898 28.2431 15.9887 32.3783 15.5171V14.5937C32.3783 12.8973 32.5087 10.89 31.5152 9.42474C30.6418 8.10987 28.9757 7.56784 27.5102 7.56784C24.7904 7.56784 22.3614 8.9629 21.7692 11.8535C21.6486 12.496 21.1771 13.1284 20.5348 13.1584L13.6092 12.4158C13.0272 12.2851 12.3849 11.8135 12.5454 10.9201C14.1413 2.52946 21.7189 0 28.5037 0C31.9766 0 36.5132 0.923475 39.2533 3.55321C42.7262 6.795 42.3949 11.1208 42.3949 15.8281V26.949C42.3949 30.2913 43.78 31.7566 45.0847 33.5633C45.5463 34.2056 45.6468 34.9787 45.0646 35.4602C43.6092 36.6746 41.0197 38.933 39.5946 40.1977L39.5745 40.1776" fill="black"/>
<path d="M47.3481 44.4043C25.0843 55 11.2671 46.1349 2.42225 40.7504C1.87494 40.4111 0.944693 40.8298 1.75181 41.7568C4.69846 45.3297 14.3553 53.9413 26.9602 53.9413C39.5738 53.9413 47.0777 47.0588 48.0164 45.8582C48.9488 44.6677 48.2902 44.011 47.3479 44.4043H47.3481ZM53.6009 40.9512C53.003 40.1727 49.9654 40.0275 48.0537 40.2624C46.139 40.4904 43.2652 41.6606 43.515 42.3632C43.6432 42.6264 43.9049 42.5083 45.2202 42.39C46.5391 42.2585 50.2338 41.7922 51.0037 42.7986C51.7772 43.812 49.8253 48.6394 49.4688 49.4179C49.1244 50.1965 49.6004 50.3972 50.2474 49.8787C50.8855 49.3604 52.0406 48.018 52.8158 46.1184C53.5856 44.2084 54.0551 41.544 53.6007 40.9512H53.6009Z" fill="#FF9900"/>
<path fill-rule="evenodd" clip-rule="evenodd" d="M32.3783 22.7837C32.3783 25.5639 32.4486 27.8824 31.0434 30.3513C29.9092 32.3589 28.1126 33.5933 26.1052 33.5933C23.3651 33.5933 21.7692 31.5056 21.7692 28.4244C21.7692 22.342 27.2191 21.238 32.3783 21.238V22.7837ZM39.5747 40.1776C39.1029 40.5991 38.4204 40.6293 37.8885 40.3482C35.5199 38.381 35.0982 37.4677 33.7935 35.5907C29.8791 39.5855 27.1089 40.7797 22.0303 40.7797C16.0282 40.7797 11.351 37.0761 11.351 29.6589C11.351 23.8678 14.4927 19.9232 18.9588 17.9962C22.8332 16.2898 28.2431 15.9887 32.3783 15.5171V14.5937C32.3783 12.8973 32.5087 10.89 31.5152 9.42474C30.6418 8.10987 28.9757 7.56784 27.5102 7.56784C24.7904 7.56784 22.3614 8.9629 21.7692 11.8535C21.6486 12.496 21.1771 13.1284 20.5348 13.1584L13.6092 12.4158C13.0272 12.2851 12.3849 11.8135 12.5454 10.9201C14.1413 2.52946 21.7189 0 28.5037 0C31.9766 0 36.5132 0.923475 39.2533 3.55321C42.7262 6.795 42.3949 11.1208 42.3949 15.8281V26.949C42.3949 30.2913 43.78 31.7566 45.0847 33.5633C45.5463 34.2056 45.6468 34.9787 45.0646 35.4602C43.6092 36.6746 41.0197 38.933 39.5946 40.1977L39.5745 40.1776" fill="black"/>
</g>
<defs>
<clipPath id="clip0">
<rect width="55" height="55" fill="white"/>
</clipPath>
</defs>
</svg>
