<svg width="54" height="55" viewBox="0 0 54 55" fill="none" xmlns="http://www.w3.org/2000/svg">
<g clip-path="url(#clip0)">
<path d="M53.7176 28.0145C53.7176 25.7612 53.5348 24.1168 53.1391 22.4116H27.4083V32.582H42.5117C42.2073 35.1095 40.563 38.9158 36.9088 41.4735L36.8576 41.814L44.9932 48.1166L45.5569 48.1728C50.7334 43.392 53.7176 36.3579 53.7176 28.0145Z" fill="#4285F4"/>
<path d="M27.4084 54.8112C34.8078 54.8112 41.0197 52.375 45.557 48.173L36.909 41.4736C34.5948 43.0875 31.4887 44.2142 27.4084 44.2142C20.1612 44.2142 14.0102 39.4336 11.8176 32.8258L11.4962 32.8531L3.03666 39.4L2.92603 39.7076C7.43268 48.66 16.6897 54.8112 27.4084 54.8112Z" fill="#34A853"/>
<path d="M11.8175 32.8258C11.239 31.1206 10.9041 29.2934 10.9041 27.4056C10.9041 25.5175 11.239 23.6905 11.7871 21.9853L11.7718 21.6222L3.20624 14.9701L2.92599 15.1034C1.06859 18.8184 0.00280762 22.9902 0.00280762 27.4056C0.00280762 31.8209 1.06859 35.9925 2.92599 39.7075L11.8175 32.8258Z" fill="#FBBC05"/>
<path d="M27.4084 10.5967C32.5544 10.5967 36.0257 12.8196 38.0051 14.6772L45.7395 7.12544C40.9894 2.71011 34.8078 0 27.4084 0C16.6897 0 7.43267 6.15097 2.92603 15.1034L11.7871 21.9853C14.0102 15.3775 20.1612 10.5967 27.4084 10.5967Z" fill="#EB4335"/>
</g>
<defs>
<clipPath id="clip0">
<rect width="53.746" height="55" fill="white"/>
</clipPath>
</defs>
</svg>
