<svg width="55" height="55" viewBox="0 0 55 55" fill="none" xmlns="http://www.w3.org/2000/svg">
<g clip-path="url(#clip0)">
<path d="M27.5001 55C42.6879 55 55.0001 42.6878 55.0001 27.5C55.0001 12.3122 42.6879 0 27.5001 0C12.3122 0 6.10352e-05 12.3122 6.10352e-05 27.5C6.10352e-05 42.6878 12.3122 55 27.5001 55Z" fill="#2DAAE1"/>
<path d="M47.0509 18.3193C45.7538 18.8948 44.3606 19.284 42.8957 19.4589C44.3907 18.5636 45.536 17.145 46.0768 15.4566C44.6566 16.3001 43.1024 16.8939 41.4817 17.2123C40.1627 15.8063 38.2819 14.9286 36.201 14.9286C32.207 14.9286 28.9677 18.1665 28.9677 22.1629C28.9677 22.7292 29.0315 23.2816 29.1541 23.812C23.1416 23.5098 17.8111 20.6297 14.2431 16.2534C13.62 17.3223 13.2634 18.5649 13.2634 19.8908C13.2634 22.4004 14.5407 24.6146 16.4816 25.9116C15.3327 25.876 14.2089 25.5659 13.2043 25.0071V25.0985C13.2043 28.604 15.6976 31.5269 19.0073 32.1917C18.3993 32.3583 17.7613 32.4453 17.1012 32.4453C16.6345 32.4453 16.1817 32.4011 15.7394 32.3179C16.66 35.1911 19.3317 37.2825 22.4965 37.3416C20.0206 39.2825 16.9008 40.4394 13.5124 40.4394C12.9288 40.4394 12.352 40.4046 11.7857 40.3363C14.9878 42.3896 18.7897 43.5882 22.8753 43.5882C36.1813 43.5882 43.4585 32.5646 43.4585 23.0049C43.4585 22.6911 43.4516 22.3795 43.4365 22.0692C44.8543 21.0436 46.0782 19.7739 47.0509 18.3193Z" fill="white"/>
</g>
<defs>
<clipPath id="clip0">
<rect width="55" height="55" fill="white"/>
</clipPath>
</defs>
</svg>
