<svg width="55" height="55" viewBox="0 0 55 55" fill="none" xmlns="http://www.w3.org/2000/svg">
<g clip-path="url(#clip0)">
<path d="M27.4999 0C12.312 0 0 12.312 0 27.4999C0 42.6878 12.312 54.9999 27.4999 54.9999C42.6878 54.9999 55 42.6878 55 27.4999C54.9999 12.312 42.6876 0 27.4999 0ZM20.1629 40.7949H14.125V21.2882H20.1629V40.7949ZM17.1152 18.7337C15.1433 18.7337 13.5447 17.122 13.5447 15.1343C13.5447 13.1464 15.1435 11.5349 17.1152 11.5349C19.0869 11.5349 20.6855 13.1464 20.6855 15.1343C20.6856 17.1221 19.087 18.7337 17.1152 18.7337ZM42.7899 40.7949H36.7813V30.5555C36.7813 27.7471 35.7145 26.1795 33.4939 26.1795C31.0771 26.1795 29.8145 27.8122 29.8145 30.5555V40.7949H24.0234V21.2882H29.8145V23.9154C29.8145 23.9154 31.5564 20.6932 35.6927 20.6932C39.829 20.6932 42.79 23.2188 42.79 28.4435L42.7899 40.7949Z" fill="url(#paint0_linear)"/>
</g>
<defs>
<linearGradient id="paint0_linear" x1="8.05454" y1="8.05454" x2="46.9454" y2="46.9454" gradientUnits="userSpaceOnUse">
<stop stop-color="#2489BE"/>
<stop offset="1" stop-color="#0575B3"/>
</linearGradient>
<clipPath id="clip0">
<rect width="55" height="55" fill="white"/>
</clipPath>
</defs>
</svg>
