<svg width="134" height="40" viewBox="0 0 134 40" fill="none" xmlns="http://www.w3.org/2000/svg">
<g clip-path="url(#clip0)">
<path d="M19.9999 3.05176e-05C8.95449 3.05176e-05 0 8.95427 0 19.9997C0 31.0462 8.95449 40 19.9999 40C31.0458 40 39.9998 31.0462 39.9998 19.9997C39.9998 8.95498 31.0462 0.000985084 19.9996 0.000985084L19.9999 3.05176e-05ZM29.1717 28.8452C28.8125 29.4344 28.0449 29.619 27.4576 29.2601C22.7612 26.3896 16.8498 25.7412 9.88803 27.3316C9.21718 27.4854 8.54847 27.0648 8.39564 26.3942C8.24207 25.7233 8.66072 25.0546 9.33325 24.9018C16.9517 23.16 23.4867 23.9097 28.7583 27.131C29.3458 27.4916 29.5321 28.2582 29.1714 28.8457L29.1717 28.8452ZM31.6196 23.4003C31.1673 24.1342 30.2077 24.3644 29.4748 23.9138C24.1 20.6099 15.9043 19.6529 9.54557 21.5831C8.7209 21.8322 7.84991 21.3674 7.59963 20.5442C7.35125 19.7195 7.81625 18.8502 8.63947 18.5994C15.9028 16.3956 24.9323 17.4631 31.1059 21.2568C31.8391 21.7082 32.0708 22.6683 31.6194 23.4005L31.6196 23.4003ZM31.8298 17.7296C25.383 13.901 14.7491 13.549 8.59479 15.4169C7.60655 15.7166 6.56145 15.1587 6.26196 14.1704C5.96247 13.1817 6.51989 12.1373 7.50886 11.8369C14.5735 9.69224 26.3177 10.1066 33.739 14.5122C34.6279 15.0397 34.9195 16.1878 34.3926 17.0755C33.8672 17.9644 32.7161 18.2574 31.83 17.7296H31.8298ZM54.4131 18.4633C50.9599 17.6398 50.3451 17.0619 50.3451 15.8475C50.3451 14.7002 51.4253 13.928 53.0317 13.928C54.5888 13.928 56.1328 14.5143 57.7516 15.7214C57.8005 15.7579 57.8619 15.7725 57.9223 15.7629C57.9828 15.7538 58.0363 15.7206 58.0716 15.6707L59.7577 13.2939C59.827 13.196 59.8081 13.0611 59.7147 12.9863C57.7881 11.4404 55.6186 10.6888 53.0828 10.6888C49.3543 10.6888 46.7499 12.9264 46.7499 16.1278C46.7499 19.5609 48.9965 20.7766 52.8789 21.7149C56.1832 22.476 56.7409 23.1137 56.7409 24.2536C56.7409 25.5167 55.6132 26.302 53.7983 26.302C51.7827 26.302 50.1386 25.623 48.2994 24.0303C48.2538 23.9909 48.1912 23.973 48.1334 23.9763C48.0725 23.9813 48.0169 24.0095 47.9782 24.0561L46.0876 26.3061C46.0084 26.3994 46.0184 26.5389 46.1101 26.6197C48.25 28.53 50.8818 29.539 53.7219 29.539C57.7397 29.539 60.3359 27.3438 60.3359 23.946C60.3431 21.0777 58.6259 19.4895 54.4202 18.4664L54.4131 18.4633ZM69.4256 15.0577C67.6841 15.0577 66.2556 15.7436 65.0778 17.149V15.5671C65.0778 15.4422 64.9765 15.3404 64.8518 15.3404H61.7598C61.6349 15.3404 61.5338 15.4422 61.5338 15.5671V33.145C61.5338 33.2699 61.6349 33.3717 61.7598 33.3717H64.8518C64.9765 33.3717 65.0778 33.2699 65.0778 33.145V27.5964C66.2559 28.9186 67.6845 29.5646 69.4256 29.5646C72.6614 29.5646 75.9371 27.0737 75.9371 22.312C75.9419 17.5491 72.6652 15.0574 69.4291 15.0574L69.4256 15.0577ZM72.3416 22.312C72.3416 24.7368 70.848 26.4288 68.7093 26.4288C66.595 26.4288 65.0001 24.6598 65.0001 22.312C65.0001 19.9643 66.595 18.1951 68.7093 18.1951C70.8134 18.1949 72.3419 19.9259 72.3419 22.3117L72.3416 22.312ZM84.333 15.0577C80.1657 15.0577 76.901 18.2665 76.901 22.3638C76.901 26.4164 80.1433 29.5916 84.2819 29.5916C88.4639 29.5916 91.7387 26.3935 91.7387 22.3119C91.7387 18.2445 88.4859 15.0581 84.3327 15.0581L84.333 15.0577ZM84.333 26.4529C82.1164 26.4529 80.4454 24.672 80.4454 22.3108C80.4454 19.9395 82.0587 18.2187 84.2819 18.2187C86.5127 18.2187 88.195 19.9996 88.195 22.3626C88.195 24.7334 86.571 26.4529 84.3332 26.4529H84.333ZM100.638 15.3404H97.235V11.8617C97.235 11.7371 97.1342 11.6353 97.0093 11.6353H93.9177C93.7926 11.6353 93.6911 11.7371 93.6911 11.8617V15.3404H92.2044C92.08 15.3404 91.9792 15.4422 91.9792 15.5671V18.2245C91.9792 18.3491 92.08 18.4511 92.2044 18.4511H93.6911V25.3271C93.6911 28.1058 95.0741 29.5147 97.8017 29.5147C98.9108 29.5147 99.831 29.2856 100.698 28.7939C100.769 28.7545 100.812 28.6786 100.812 28.5978V26.0672C100.812 25.9891 100.772 25.9154 100.705 25.8745C100.638 25.8322 100.554 25.8301 100.485 25.8642C99.889 26.164 99.3132 26.3022 98.6696 26.3022C97.6775 26.3022 97.235 25.8518 97.235 24.8423V18.4523H100.638C100.762 18.4523 100.863 18.3506 100.863 18.2257V15.5685C100.868 15.4436 100.767 15.3419 100.641 15.3419L100.638 15.3404ZM112.493 15.3541V14.9268C112.493 13.6698 112.975 13.1093 114.056 13.1093C114.7 13.1093 115.218 13.2373 115.798 13.4308C115.869 13.4533 115.944 13.442 116.002 13.3993C116.062 13.3565 116.095 13.288 116.095 13.2154V10.6098C116.095 10.5102 116.031 10.4221 115.935 10.3927C115.323 10.2105 114.539 10.0235 113.365 10.0235C110.509 10.0235 109 11.6317 109 14.6727V15.327H107.514C107.39 15.327 107.287 15.4288 107.287 15.5535V18.2245C107.287 18.3491 107.39 18.4511 107.514 18.4511H109V29.0571C109 29.182 109.101 29.2837 109.225 29.2837H112.317C112.442 29.2837 112.544 29.182 112.544 29.0571V18.4518H115.431L119.853 29.0552C119.351 30.1693 118.857 30.3909 118.184 30.3909C117.639 30.3909 117.065 30.2283 116.479 29.9073C116.423 29.877 116.358 29.8719 116.298 29.8903C116.239 29.9111 116.19 29.9551 116.165 30.0124L115.117 32.3115C115.067 32.4202 115.11 32.5477 115.214 32.6041C116.308 33.1966 117.296 33.4495 118.516 33.4495C120.8 33.4495 122.062 32.386 123.174 29.5249L128.538 15.6636C128.565 15.5938 128.557 15.515 128.514 15.4532C128.472 15.3918 128.403 15.3548 128.328 15.3548H125.109C125.013 15.3548 124.927 15.4161 124.895 15.5067L121.598 24.9254L117.986 15.5004C117.953 15.4128 117.869 15.3547 117.775 15.3547H112.492L112.493 15.3541ZM105.619 15.3404H102.527C102.402 15.3404 102.301 15.4422 102.301 15.5671V29.0571C102.301 29.182 102.402 29.2837 102.527 29.2837H105.619C105.744 29.2837 105.846 29.182 105.846 29.0571V15.568C105.846 15.5382 105.84 15.5087 105.829 15.4812C105.818 15.4536 105.801 15.4286 105.78 15.4075C105.759 15.3865 105.734 15.3698 105.706 15.3584C105.678 15.3471 105.649 15.3413 105.619 15.3414L105.619 15.3404ZM104.091 9.19812C102.866 9.19812 101.872 10.1897 101.872 11.4146C101.872 12.6403 102.866 13.6331 104.091 13.6331C105.315 13.6331 106.308 12.6403 106.308 11.4146C106.308 10.1899 105.315 9.19812 104.092 9.19812H104.091ZM131.178 19.6777C129.955 19.6777 129.002 18.695 129.002 17.5016C129.002 16.3081 129.967 15.3142 131.19 15.3142C132.414 15.3142 133.366 16.2967 133.366 17.4891C133.366 18.6825 132.401 19.6777 131.178 19.6777H131.178ZM131.19 15.5305C130.076 15.5305 129.232 16.4166 129.232 17.5016C129.232 18.5861 130.07 19.4602 131.179 19.4602C132.293 19.4602 133.138 18.5748 133.138 17.4891C133.138 16.4046 132.299 15.5305 131.191 15.5305H131.19ZM131.673 17.7129L132.288 18.5746H131.769L131.215 17.7841H130.739V18.5746H130.304V16.2905H131.323C131.854 16.2905 132.203 16.562 132.203 17.0191C132.205 17.3936 131.988 17.6224 131.675 17.7129H131.673V17.7129ZM131.305 16.6824H130.738V17.4048H131.305C131.588 17.4048 131.757 17.2666 131.757 17.0433C131.757 16.8083 131.587 16.6824 131.305 16.6824H131.305V16.6824Z" fill="#CACAD2"/>
</g>
<defs>
<clipPath id="clip0">
<rect width="133.366" height="40" fill="white"/>
</clipPath>
</defs>
</svg>
