<svg width="750" height="250" viewBox="0 0 750 250" fill="none" xmlns="http://www.w3.org/2000/svg">
<path opacity="0.5" fill-rule="evenodd" clip-rule="evenodd" d="M212.488 279.161C195.494 312.224 178.237 325.731 160.567 327.653C142.827 329.582 124.363 319.888 104.834 305.73C95.7365 299.134 86.4495 291.601 76.9323 283.882C76.2546 283.332 75.5756 282.782 74.8955 282.23C64.6722 273.943 54.1863 265.506 43.4224 257.876C21.907 242.623 -0.813599 230.52 -24.9345 229.267L-25.0124 230.765C-1.3276 231.996 21.1037 243.893 42.5549 259.099C53.2742 266.698 63.7252 275.106 73.9509 283.396C74.6325 283.948 75.3131 284.5 75.9928 285.052L75.9948 285.053C85.5038 292.766 94.8214 300.323 103.954 306.944C123.489 321.108 142.372 331.14 160.729 329.144C179.156 327.14 196.747 313.068 213.822 279.846C230.817 246.779 249.507 224.131 269.938 208.566C290.367 193.002 312.576 184.489 336.658 179.748C360.752 175.005 386.703 174.041 414.621 173.568C418.996 173.494 423.42 173.432 427.892 173.37C451.935 173.033 477.37 172.676 504.202 170.319C555.303 165.83 605.034 134.805 646.392 97.9597C687.764 61.1004 720.854 18.3287 738.679 -9.82707L737.411 -10.6294C719.651 17.4249 686.649 60.0853 645.394 96.8397C604.124 133.607 554.693 164.378 504.07 168.825C477.299 171.177 451.926 171.533 427.883 171.87L427.878 171.87C423.405 171.932 418.977 171.994 414.595 172.069C386.679 172.541 360.607 173.505 336.368 178.277C312.115 183.051 289.679 191.64 269.029 207.372C248.382 223.102 229.56 245.942 212.488 279.161ZM205.374 256.569C188.381 289.633 171.124 303.139 153.454 305.061C135.714 306.991 117.25 297.297 97.7213 283.139C88.6234 276.543 79.3364 269.01 69.8192 261.291L68.5166 260.234L67.7823 259.639C57.559 251.351 47.0732 242.915 36.3092 235.284C14.7939 220.032 -7.92674 207.929 -32.0477 206.676L-32.1255 208.174C-8.44075 209.405 13.9906 221.301 35.4417 236.508C46.161 244.107 56.6121 252.515 66.8378 260.804C67.5194 261.357 68.2 261.909 68.8797 262.46L68.8815 262.462L68.883 262.463L68.8845 262.464L68.8856 262.465L68.8864 262.466C78.3938 270.177 87.7098 277.733 96.8408 284.353C116.376 298.517 135.259 308.549 153.616 306.553C172.043 304.548 189.634 290.477 206.709 257.255C223.703 224.188 242.394 201.54 262.825 185.974C283.254 170.411 305.463 161.898 329.545 157.157C353.639 152.414 379.59 151.45 407.508 150.977C411.883 150.903 416.307 150.841 420.779 150.778C444.822 150.442 470.257 150.085 497.089 147.728C548.19 143.239 597.921 112.214 639.279 75.3684C680.651 38.5091 713.741 -4.26255 731.566 -32.4183L730.298 -33.2207C712.538 -5.16638 679.536 37.4941 638.281 74.2484C597.011 111.016 547.58 141.787 496.957 146.234C470.185 148.586 444.813 148.941 420.77 149.278L420.765 149.278L420.736 149.279C416.272 149.341 411.855 149.403 407.482 149.477C379.566 149.95 353.494 150.914 329.255 155.685C305.002 160.46 282.566 169.049 261.916 184.781C241.269 200.511 222.447 223.351 205.374 256.569ZM198.262 233.978C181.268 267.042 164.012 280.548 146.341 282.47C128.601 284.4 110.137 274.706 90.6084 260.548C81.5105 253.951 72.2236 246.419 62.7064 238.7C62.0286 238.15 61.3496 237.599 60.6695 237.048C50.4462 228.76 39.9603 220.324 29.1964 212.693C7.68107 197.441 -15.0396 185.338 -39.1605 184.084L-39.2384 185.582C-15.5536 186.813 6.87777 198.71 28.3289 213.917C39.0482 221.516 49.4992 229.924 59.7249 238.213C60.4065 238.766 61.0872 239.318 61.7668 239.869L61.7687 239.871L61.7697 239.871L61.7705 239.872C71.2789 247.584 80.596 255.141 89.728 261.762C109.263 275.926 128.146 285.958 146.503 283.961C164.93 281.957 182.521 267.886 199.596 234.664C216.591 201.597 235.281 178.949 255.712 163.383C276.141 147.82 298.35 139.307 322.432 134.566C346.526 129.823 372.478 128.858 400.395 128.386C404.771 128.312 409.194 128.25 413.666 128.187C437.709 127.85 463.144 127.494 489.976 125.137C541.077 120.648 590.808 89.623 632.166 52.7772C673.538 15.9179 706.628 -26.8538 724.453 -55.0096L723.185 -55.8119C705.425 -27.7576 672.423 14.9028 631.168 51.6572C589.898 88.425 540.467 119.195 489.844 123.643C463.073 125.994 437.7 126.35 413.657 126.687L413.652 126.687L413.623 126.688C409.16 126.75 404.742 126.812 400.369 126.886C372.453 127.359 346.381 128.322 322.142 133.094C297.889 137.869 275.453 146.458 254.803 162.19C234.156 177.92 215.334 200.76 198.262 233.978ZM139.228 259.879C156.898 257.957 174.155 244.451 191.148 211.387C208.221 178.169 227.043 155.329 247.69 139.599C268.34 123.867 290.776 115.277 315.029 110.503C339.268 105.731 365.34 104.768 393.256 104.295C397.64 104.221 402.069 104.159 406.544 104.096C430.587 103.759 455.959 103.403 482.731 101.051C533.354 96.6044 582.785 65.8339 624.055 29.0661C665.31 -7.68827 698.312 -50.3487 716.072 -78.403L717.339 -77.6006C699.515 -49.4449 666.425 -6.6732 625.053 30.1861C583.695 67.0319 533.964 98.0566 482.863 102.546C456.031 104.903 430.596 105.259 406.553 105.596L406.548 105.596L406.524 105.597C402.062 105.659 397.648 105.721 393.282 105.795C365.364 106.267 339.413 107.231 315.318 111.975C291.237 116.715 269.028 125.229 248.599 140.792C228.168 156.357 209.477 179.005 192.482 212.073C175.408 245.295 157.817 259.366 139.39 261.37C121.032 263.367 102.15 253.335 82.6148 239.171C73.4826 232.55 64.1655 224.993 54.657 217.281L54.6554 217.279L54.6536 217.278L53.585 216.411L52.6117 215.622C42.386 207.332 31.935 198.925 21.2157 191.326C-0.235453 176.119 -22.6668 164.222 -46.3516 162.991L-46.2737 161.493C-22.1528 162.747 0.567851 174.85 22.0832 190.102C32.8471 197.733 43.333 206.169 53.5563 214.457L54.6957 215.381L55.5932 216.109C65.1104 223.828 74.3973 231.36 83.4952 237.956C103.023 252.115 121.488 261.808 139.228 259.879ZM184.035 188.796C167.042 221.859 149.785 235.366 132.114 237.288C114.374 239.217 95.9103 229.524 76.382 215.365C67.2841 208.769 57.9971 201.236 48.4799 193.517L47.6054 192.808L46.4431 191.866C36.2198 183.578 25.7339 175.141 14.97 167.511C-6.54536 152.258 -29.266 140.156 -53.3869 138.902L-53.4648 140.4C-29.78 141.631 -7.34866 153.528 14.1025 168.734C24.8218 176.333 35.2728 184.741 45.4985 193.031C46.1801 193.583 46.8607 194.135 47.5404 194.687L47.5422 194.688L47.5437 194.689C57.0523 202.402 66.3694 209.959 75.5016 216.58C95.037 230.743 113.919 240.776 132.277 238.779C150.703 236.775 168.295 222.703 185.369 189.481C202.364 156.414 221.054 133.766 241.486 118.201C261.915 102.637 284.124 94.1242 308.205 89.3835C332.3 84.6402 358.251 83.6762 386.168 83.2036C390.535 83.1297 394.949 83.0678 399.411 83.0053L399.434 83.005L399.44 83.0049C423.482 82.668 448.918 82.3115 475.749 79.9545C526.851 75.4653 576.582 44.4406 617.939 7.59482C659.312 -29.2645 692.402 -72.0361 710.226 -100.192L708.959 -100.994C691.199 -72.94 658.196 -30.2795 616.942 6.47483C575.672 43.2426 526.241 74.0132 475.618 78.4602C448.846 80.812 423.473 81.1677 399.431 81.5048C394.955 81.5675 390.526 81.6296 386.143 81.7038C358.227 82.1764 332.155 83.1399 307.916 87.9117C283.663 92.6862 261.227 101.276 240.577 117.008C219.93 132.737 201.108 155.577 184.035 188.796ZM125.001 214.696C142.672 212.775 159.929 199.268 176.922 166.204C193.995 132.986 212.817 110.146 233.464 94.4163C254.114 78.6843 276.55 70.0949 300.803 65.3205C325.042 60.5487 351.114 59.5851 379.03 59.1126C383.406 59.0385 387.828 58.9765 392.296 58.9138L392.305 58.9137L392.318 58.9136L392.318 58.9136C416.361 58.5765 441.733 58.2208 468.505 55.869C519.128 51.4219 568.559 20.6514 609.829 -16.1164C651.083 -52.8708 684.086 -95.5312 701.846 -123.585L703.113 -122.783C685.289 -94.6274 652.199 -51.8557 610.826 -14.9964C569.469 21.8494 519.738 52.8741 468.636 57.3632C441.805 59.7203 416.369 60.0767 392.327 60.4136C387.855 60.4763 383.431 60.5383 379.055 60.6124C351.138 61.0849 325.187 62.0489 301.092 66.7923C277.011 71.5329 254.801 80.0462 234.373 95.6095C213.941 111.175 195.251 133.823 178.256 166.89C161.182 200.112 143.59 214.183 125.164 216.188C106.806 218.184 87.924 208.152 68.3885 193.988C59.2566 187.367 49.9396 179.81 40.4312 172.098L40.4297 172.097L40.4274 172.095C39.7477 171.544 39.0671 170.992 38.3855 170.44C28.1598 162.15 17.7088 153.742 6.98946 146.143C-14.4617 130.936 -36.893 119.04 -60.5778 117.809L-60.4999 116.311C-36.379 117.564 -13.6584 129.667 7.85694 144.92C18.6209 152.55 29.1067 160.987 39.3301 169.274C40.0102 169.826 40.6892 170.376 41.3669 170.926C50.8841 178.645 60.1711 186.178 69.269 192.774C88.7972 206.932 107.261 216.626 125.001 214.696Z" fill="url(#paint0_linear)"/>
<defs>
<linearGradient id="paint0_linear" x1="679.936" y1="158.338" x2="67.2961" y2="255.604" gradientUnits="userSpaceOnUse">
<stop stop-color="#846CCA"/>
<stop offset="0.453125" stop-color="#215D71"/>
<stop offset="1" stop-color="#81782C"/>
</linearGradient>
</defs>
</svg>
